{
  "accessors": [
    {
      "bufferView": 2,
      "componentType": 5126,
      "count": 865,
      "max": [
        8.078688621520996,
        4.486523628234863,
        6.401715278625488
      ],
      "min": [
        -8.072416305541992,
        -4.535502910614014,
        0.005806446075439453
      ],
      "type": "VEC3"
    },
    {
      "bufferView": 2,
      "byteOffset": 10380,
      "componentType": 5126,
      "count": 865,
      "max": [
        1.0,
        1.0,
        1.0
      ],
      "min": [
        -1.0,
        -1.0,
        -1.0
      ],
      "type": "VEC3"
    },
    {
      "bufferView": 3,
      "componentType": 5126,
      "count": 865,
      "max": [
        1.0,
        1.0,
        1.0,
        1.0
      ],
      "min": [
        -1.0,
        -1.0,
        -1.0,
        1.0
      ],
      "type": "VEC4"
    },
    {
      "bufferView": 1,
      "componentType": 5126,
      "count": 865,
      "max": [
        0.9881782531738281,
        0.9749048352241516
      ],
      "min": [
        0.011378288269042969,
        0.006918946281075478
      ],
      "type": "VEC2"
    },
    {
      "bufferView": 1,
      "byteOffset": 6920,
      "componentType": 5126,
      "count": 865,
      "max": [
        0.9218617677688599,
        0.9807692766189575
      ],
      "min": [
        0.0180757287889719,
        0.019230768084526062
      ],
      "type": "VEC2"
    },
    {
      "bufferView": 0,
      "componentType": 5125,
      "count": 2160,
      "type": "SCALAR"
    }
  ],
  "asset": {
    "extras": {
      "author": "Jochon (https://sketchfab.com/jochon)",
      "license": "CC-BY-4.0 (http://creativecommons.org/licenses/by/4.0/)",
      "source": "https://sketchfab.com/3d-models/table-08b62c750b414ea3b7fb6e2979ebb676",
      "title": "Table"
    },
    "generator": "Sketchfab-12.68.0",
    "version": "2.0"
  },
  "bufferViews": [
    {
      "buffer": 0,
      "byteLength": 8640,
      "name": "floatBufferViews",
      "target": 34963
    },
    {
      "buffer": 0,
      "byteLength": 13840,
      "byteOffset": 8640,
      "byteStride": 8,
      "name": "floatBufferViews",
      "target": 34962
    },
    {
      "buffer": 0,
      "byteLength": 20760,
      "byteOffset": 22480,
      "byteStride": 12,
      "name": "floatBufferViews",
      "target": 34962
    },
    {
      "buffer": 0,
      "byteLength": 13840,
      "byteOffset": 43240,
      "byteStride": 16,
      "name": "floatBufferViews",
      "target": 34962
    }
  ],
  "buffers": [
    {
      "byteLength": 57080,
      "uri": "scene.bin"
    }
  ],
  "images": [
    {
      "uri": "textures/Table_Material_baseColor.png"
    },
    {
      "uri": "textures/Table_Material_metallicRoughness.png"
    },
    {
      "uri": "textures/Table_Material_normal.png"
    }
  ],
  "materials": [
    {
      "doubleSided": true,
      "name": "Table_Material",
      "normalTexture": {
        "index": 2
      },
      "pbrMetallicRoughness": {
        "baseColorTexture": {
          "index": 0
        },
        "metallicRoughnessTexture": {
          "index": 1
        }
      }
    }
  ],
  "meshes": [
    {
      "name": "Table_Table_Material_0",
      "primitives": [
        {
          "attributes": {
            "NORMAL": 1,
            "POSITION": 0,
            "TANGENT": 2,
            "TEXCOORD_0": 3,
            "TEXCOORD_1": 4
          },
          "indices": 5,
          "material": 0,
          "mode": 4
        }
      ]
    }
  ],
  "nodes": [
    {
      "children": [
        1
      ],
      "matrix": [
        1.0,
        0.0,
        0.0,
        0.0,
        0.0,
        2.220446049250313e-16,
        -1.0,
        0.0,
        0.0,
        1.0,
        2.220446049250313e-16,
        0.0,
        0.0,
        0.0,
        0.0,
        1.0
      ],
      "name": "Sketchfab_model"
    },
    {
      "children": [
        2
      ],
      "matrix": [
        1.0,
        0.0,
        0.0,
        0.0,
        0.0,
        0.0,
        1.0,
        0.0,
        0.0,
        -1.0,
        0.0,
        0.0,
        0.0,
        0.0,
        0.0,
        1.0
      ],
      "name": "Table.fbx"
    },
    {
      "children": [
        3
      ],
      "name": "RootNode"
    },
    {
      "children": [
        4
      ],
      "matrix": [
        15.0,
        0.0,
        0.0,
        0.0,
        0.0,
        3.3306690738754696e-15,
        -15.0,
        0.0,
        0.0,
        15.0,
        3.3306690738754696e-15,
        0.0,
        -0.043906211853027344,
        0.14734792709350586,
        -0.34285497665405273,
        1.0
      ],
      "name": "Table"
    },
    {
      "mesh": 0,
      "name": "Table_Table_Material_0"
    }
  ],
  "samplers": [
    {
      "magFilter": 9729,
      "minFilter": 9987,
      "wrapS": 10497,
      "wrapT": 10497
    }
  ],
  "scene": 0,
  "scenes": [
    {
      "name": "Sketchfab_Scene",
      "nodes": [
        0
      ]
    }
  ],
  "textures": [
    {
      "sampler": 0,
      "source": 0
    },
    {
      "sampler": 0,
      "source": 1
    },
    {
      "sampler": 0,
      "source": 2
    }
  ]
}
