{
  "accessors": [
    {
      "bufferView": 2,
      "componentType": 5126,
      "count": 4067,
      "max": [
        8.549184799194336,
        8.549184799194336,
        31.28687858581543
      ],
      "min": [
        0.033358097076416016,
        0.03335762023925781,
        0.0
      ],
      "type": "VEC3"
    },
    {
      "bufferView": 2,
      "byteOffset": 48804,
      "componentType": 5126,
      "count": 4067,
      "max": [
        0.9999998211860657,
        0.9999998211860657,
        0.9997870922088623
      ],
      "min": [
        -0.9999998211860657,
        -0.9999998211860657,
        -1.0
      ],
      "type": "VEC3"
    },
    {
      "bufferView": 1,
      "componentType": 5126,
      "count": 4067,
      "max": [
        1.0,
        1.0
      ],
      "min": [
        0.0,
        0.0
      ],
      "type": "VEC2"
    },
    {
      "bufferView": 0,
      "componentType": 5125,
      "count": 23616,
      "type": "SCALAR"
    },
    {
      "bufferView": 2,
      "byteOffset": 97608,
      "componentType": 5126,
      "count": 2151,
      "max": [
        8.464030265808105,
        8.464030265808105,
        26.56386375427246
      ],
      "min": [
        0.11851215362548828,
        0.11851215362548828,
        0.2683223485946655
      ],
      "type": "VEC3"
    },
    {
      "bufferView": 2,
      "byteOffset": 123420,
      "componentType": 5126,
      "count": 2151,
      "max": [
        0.9999391436576843,
        0.9999391436576843,
        1.0
      ],
      "min": [
        -0.9999391436576843,
        -0.9999391436576843,
        -1.0
      ],
      "type": "VEC3"
    },
    {
      "bufferView": 1,
      "byteOffset": 32536,
      "componentType": 5126,
      "count": 2151,
      "max": [
        1.3669999837875366,
        1.0
      ],
      "min": [
        -0.38783299922943115,
        0.26262402534484863
      ],
      "type": "VEC2"
    },
    {
      "bufferView": 0,
      "byteOffset": 94464,
      "componentType": 5125,
      "count": 11946,
      "type": "SCALAR"
    },
    {
      "bufferView": 2,
      "byteOffset": 149232,
      "componentType": 5126,
      "count": 294,
      "max": [
        8.582542419433594,
        8.582542419433594,
        16.91319465637207
      ],
      "min": [
        0.0,
        0.0,
        3.1601736545562744
      ],
      "type": "VEC3"
    },
    {
      "bufferView": 2,
      "byteOffset": 152760,
      "componentType": 5126,
      "count": 294,
      "max": [
        0.9999092817306519,
        0.9999092817306519,
        -0.013468790799379349
      ],
      "min": [
        -0.9999092817306519,
        -0.9999092817306519,
        -0.01581299677491188
      ],
      "type": "VEC3"
    },
    {
      "bufferView": 1,
      "byteOffset": 49744,
      "componentType": 5126,
      "count": 294,
      "max": [
        1.0,
        0.7837979793548584
      ],
      "min": [
        0.0,
        0.7123690247535706
      ],
      "type": "VEC2"
    },
    {
      "bufferView": 0,
      "byteOffset": 142248,
      "componentType": 5125,
      "count": 1440,
      "type": "SCALAR"
    },
    {
      "bufferView": 2,
      "byteOffset": 156288,
      "componentType": 5126,
      "count": 937,
      "max": [
        6.459888458251953,
        6.461045742034912,
        31.911212921142578
      ],
      "min": [
        2.1203393936157227,
        2.1214966773986816,
        30.62064552307129
      ],
      "type": "VEC3"
    },
    {
      "bufferView": 2,
      "byteOffset": 167532,
      "componentType": 5126,
      "count": 937,
      "max": [
        0.9997419118881226,
        0.9997419118881226,
        0.9929624199867249
      ],
      "min": [
        -0.9997419118881226,
        -0.9997419118881226,
        -1.0
      ],
      "type": "VEC3"
    },
    {
      "bufferView": 1,
      "byteOffset": 52096,
      "componentType": 5126,
      "count": 937,
      "max": [
        0.9995239973068237,
        1.0
      ],
      "min": [
        0.0,
        0.00047588348388671875
      ],
      "type": "VEC2"
    },
    {
      "bufferView": 0,
      "byteOffset": 148008,
      "componentType": 5125,
      "count": 4962,
      "type": "SCALAR"
    }
  ],
  "asset": {
    "extras": {
      "author": "mrxa (https://sketchfab.com/mrxa)",
      "license": "CC-BY-4.0 (http://creativecommons.org/licenses/by/4.0/)",
      "source": "https://sketchfab.com/3d-models/beer-bottle-833ef9cea519454fb1d249154b830f04",
      "title": "Beer Bottle"
    },
    "generator": "Sketchfab-12.67.0",
    "version": "2.0"
  },
  "bufferViews": [
    {
      "buffer": 0,
      "byteLength": 167856,
      "name": "floatBufferViews",
      "target": 34963
    },
    {
      "buffer": 0,
      "byteLength": 59592,
      "byteOffset": 167856,
      "byteStride": 8,
      "name": "floatBufferViews",
      "target": 34962
    },
    {
      "buffer": 0,
      "byteLength": 178776,
      "byteOffset": 227448,
      "byteStride": 12,
      "name": "floatBufferViews",
      "target": 34962
    }
  ],
  "buffers": [
    {
      "byteLength": 406224,
      "uri": "scene.bin"
    }
  ],
  "materials": [
    {
      "doubleSided": true,
      "name": "Default",
      "pbrMetallicRoughness": {
        "baseColorFactor": [
          0.48,
          0.48,
          0.48,
          1.0
        ],
        "metallicFactor": 0.0,
        "roughnessFactor": 0.6
      }
    }
  ],
  "meshes": [
    {
      "name": "Object_0",
      "primitives": [
        {
          "attributes": {
            "NORMAL": 1,
            "POSITION": 0,
            "TEXCOORD_0": 2
          },
          "indices": 3,
          "material": 0,
          "mode": 4
        }
      ]
    },
    {
      "name": "Object_1",
      "primitives": [
        {
          "attributes": {
            "NORMAL": 5,
            "POSITION": 4,
            "TEXCOORD_0": 6
          },
          "indices": 7,
          "material": 0,
          "mode": 4
        }
      ]
    },
    {
      "name": "Object_2",
      "primitives": [
        {
          "attributes": {
            "NORMAL": 9,
            "POSITION": 8,
            "TEXCOORD_0": 10
          },
          "indices": 11,
          "material": 0,
          "mode": 4
        }
      ]
    },
    {
      "name": "Object_3",
      "primitives": [
        {
          "attributes": {
            "NORMAL": 13,
            "POSITION": 12,
            "TEXCOORD_0": 14
          },
          "indices": 15,
          "material": 0,
          "mode": 4
        }
      ]
    }
  ],
  "nodes": [
    {
      "children": [
        1
      ],
      "matrix": [
        1.0,
        0.0,
        0.0,
        0.0,
        0.0,
        2.220446049250313e-16,
        -1.0,
        0.0,
        0.0,
        1.0,
        2.220446049250313e-16,
        0.0,
        0.0,
        0.0,
        0.0,
        1.0
      ],
      "name": "Sketchfab_model"
    },
    {
      "children": [
        2
      ],
      "matrix": [
        1.0,
        0.0,
        0.0,
        0.0,
        0.0,
        1.0,
        0.0,
        0.0,
        0.0,
        0.0,
        1.0,
        0.0,
        -4.290113925933838,
        -4.291271209716797,
        0.5323899388313293,
        1.0
      ],
      "name": "beer bottle.obj.cleaner.materialmerger.gles"
    },
    {
      "children": [
        3,
        4,
        5,
        6
      ],
      "name": "Object_2"
    },
    {
      "mesh": 0,
      "name": "Object_3"
    },
    {
      "mesh": 1,
      "name": "Object_4"
    },
    {
      "mesh": 2,
      "name": "Object_5"
    },
    {
      "mesh": 3,
      "name": "Object_6"
    }
  ],
  "scene": 0,
  "scenes": [
    {
      "name": "Sketchfab_Scene",
      "nodes": [
        0
      ]
    }
  ]
}
